<svg width="57" height="57" viewBox="0 0 57 57" fill="none" xmlns="http://www.w3.org/2000/svg">
<path d="M51.6562 28.4968L51.6562 28.5054C51.657 28.8028 51.5807 29.0954 51.4349 29.3546L52.9874 30.2279L51.4349 29.3546C51.2891 29.6138 51.0787 29.8308 50.8241 29.9846L50.8158 29.9897L18.7355 49.6146L18.7348 49.615C18.4644 49.7806 18.1546 49.871 17.8376 49.8769C17.5205 49.8828 17.2077 49.8039 16.9313 49.6484L16.9273 49.6462C16.6559 49.4945 16.4299 49.2732 16.2724 49.0052C16.1151 48.7375 16.0319 48.4328 16.0312 48.1223V8.87993C16.0319 8.56945 16.1151 8.26472 16.2724 7.997C16.4299 7.72899 16.6559 7.50775 16.9273 7.35604L16.9273 7.35605L16.9313 7.35378C17.2077 7.19831 17.5205 7.11943 17.8376 7.12531C18.1546 7.13118 18.4644 7.22158 18.7348 7.38718L18.7355 7.38758L50.8158 27.0125L50.8241 27.0176C51.0787 27.1714 51.2891 27.3884 51.4349 27.6476L52.9874 26.7743L51.4349 27.6477C51.5807 27.9069 51.657 28.1994 51.6562 28.4968Z" stroke="white" stroke-width="3.5625"/>
</svg>
